<svg id="Layer_1" data-name="Layer 1" xmlns="http://www.w3.org/2000/svg" viewBox="0 0 343.81 151.08"><path d="M477.91,355.51H369.47a75.52,75.52,0,0,0-127.52,0H134.09l11,11h91.08a74.27,74.27,0,0,0-4,12.38H157.42l11,11h62c-.16,2-.26,4.06-.26,6.12s.11,4.19.28,6.26h-49.7l11,11h40.45a74.06,74.06,0,0,0,4,12.38H204.08l11,11h27a75.52,75.52,0,0,0,127.34,0H397l11-11H375.21a75,75,0,0,0,4-12.38h41l11-11H381c.17-2.07.28-4.15.28-6.26s-.11-4.1-.27-6.12H443.6l11-11h-75.3a75.21,75.21,0,0,0-4-12.38h91.66ZM306,460.62a64.5,64.5,0,1,1,64.5-64.5A64.5,64.5,0,0,1,306,460.62Z" transform="translate(-134.09 -320.46)" fill="#231f20"/><polygon points="138.74 85.04 129.98 58.56 120.06 58.56 120.06 92.58 127.3 92.58 127.3 67.35 134.95 92.58 142.46 92.58 150.13 67.35 150.13 92.58 157.38 92.58 157.38 58.56 147.42 58.56 138.74 85.04" fill="#231f20"/><polygon points="201.88 83.48 188.25 58.56 180.23 58.56 180.23 92.58 186.96 92.58 186.96 68.73 200.59 92.78 208.7 92.58 208.7 58.56 201.97 58.56 201.88 83.48" fill="#231f20"/><rect x="165.28" y="58.53" width="6.9" height="34.03" fill="#231f20"/><rect x="216.56" y="58.53" width="6.9" height="34.03" fill="#231f20"/></svg>